<?xml version="1.0" standalone="no"?>
<!DOCTYPE svg PUBLIC "-//W3C//DTD SVG 20010904//EN"
 "http://www.w3.org/TR/2001/REC-SVG-20010904/DTD/svg10.dtd">
<svg version="1.0" xmlns="http://www.w3.org/2000/svg"
 width="400.000000pt" height="400.000000pt" viewBox="0 0 400.000000 400.000000"
 preserveAspectRatio="xMidYMid meet">
<metadata>
Created by potrace 1.14, written by Peter Selinger 2001-2017
</metadata>
<g transform="translate(0.000000,400.000000) scale(0.100000,-0.100000)"
fill="#000000" stroke="none">
<path d="M2530 2852 c0 -10 -4 -22 -9 -27 -4 -6 -15 -30 -24 -55 -9 -25 -27
-76 -42 -115 -14 -38 -33 -88 -40 -110 -8 -22 -28 -76 -44 -120 -41 -106 -41
-107 15 -103 53 3 50 -1 94 118 17 47 35 94 40 105 4 11 13 34 19 50 5 17 21
62 36 100 14 39 34 94 45 123 l19 52 -55 0 c-45 0 -54 -3 -54 -18z"/>
<path d="M1972 2708 c-167 -85 -183 -94 -180 -117 3 -26 7 -28 81 -60 26 -12
66 -30 90 -40 23 -11 53 -24 67 -30 14 -5 51 -21 83 -35 l57 -26 0 45 c0 41
-3 47 -27 55 -16 6 -37 15 -48 20 -11 5 -38 16 -60 25 -102 41 -115 48 -104
62 7 7 16 13 22 13 5 0 33 11 61 24 28 13 75 34 104 47 51 23 52 25 52 66 0
24 -3 43 -7 43 -5 0 -90 -42 -191 -92z"/>
<path d="M2810 2755 c0 -43 1 -45 48 -65 88 -38 207 -99 195 -99 -7 -1 -37
-12 -67 -26 -30 -14 -59 -25 -63 -25 -5 0 -26 -9 -48 -20 -22 -11 -45 -20 -52
-20 -9 0 -13 -15 -13 -46 0 -52 0 -52 100 -7 110 50 136 62 185 82 75 32 80
36 83 63 3 24 -9 32 -160 108 -225 113 -208 109 -208 55z"/>
<path d="M750 2014 l0 -277 133 5 c118 4 138 8 183 31 69 35 109 85 130 163
29 108 3 215 -70 286 -49 48 -130 68 -271 68 l-105 0 0 -276z m280 151 c56
-50 72 -163 36 -244 -25 -53 -74 -81 -146 -81 l-50 0 0 176 0 176 69 -4 c51
-2 75 -9 91 -23z"/>
<path d="M1450 2015 l0 -275 155 0 155 0 0 50 0 50 -100 0 -100 0 0 70 0 70
95 0 95 0 0 45 0 45 -95 0 -95 0 0 60 0 60 100 0 100 0 0 50 0 50 -155 0 -155
0 0 -275z"/>
<path d="M1943 2268 c3 -13 43 -135 90 -273 l85 -250 65 -3 66 -3 10 33 c5 18
43 132 84 253 41 121 78 230 82 243 6 21 4 22 -53 22 l-60 0 -11 -47 c-6 -27
-18 -64 -25 -83 -14 -33 -49 -146 -79 -255 l-14 -50 -8 35 c-6 31 -51 176
-105 340 l-18 55 -57 3 c-56 3 -57 2 -52 -20z"/>
<path d="M750 1404 l0 -275 53 3 52 3 -2 205 -2 205 19 -50 c10 -27 30 -90 45
-140 15 -49 37 -120 48 -157 l22 -68 51 0 52 0 16 48 c10 26 23 67 31 92 8 25
22 68 31 95 9 28 27 82 40 120 l23 70 1 -213 0 -213 53 3 52 3 3 273 2 273
-81 -3 -82 -3 -66 -202 c-36 -112 -69 -203 -73 -203 -3 0 -10 15 -13 33 -4 17
-15 57 -25 87 -10 30 -30 96 -45 145 -47 158 -35 145 -126 145 l-79 0 0 -276z"/>
<path d="M1720 1660 c-6 -12 -17 -40 -25 -63 -7 -23 -34 -100 -59 -172 -67
-188 -96 -274 -96 -286 0 -6 23 -9 58 -7 l57 3 21 60 21 60 100 3 100 3 21
-63 20 -63 59 0 c56 0 58 1 55 25 -2 14 -10 39 -17 55 -7 17 -27 71 -44 120
-17 50 -50 146 -74 215 l-44 125 -71 3 c-63 3 -72 1 -82 -18z m103 -143 c10
-34 24 -83 32 -109 l13 -48 -69 0 c-39 0 -69 4 -69 10 0 5 9 33 20 61 10 29
24 76 30 106 7 30 15 52 18 48 4 -3 15 -34 25 -68z"/>
<path d="M2260 1405 l0 -276 58 3 57 3 3 103 3 102 34 0 c19 0 35 -4 35 -9 0
-6 26 -52 59 -103 l58 -93 62 -3 c33 -2 61 1 61 6 0 5 -16 30 -35 55 -19 25
-35 49 -35 52 0 3 -18 30 -40 60 -40 54 -48 75 -31 75 22 0 68 52 81 90 11 34
11 50 1 88 -25 97 -81 122 -266 122 l-105 0 0 -275z m243 153 c45 -52 1 -118
-79 -118 l-44 0 0 75 0 76 53 -7 c34 -4 58 -13 70 -26z"/>
<path d="M2840 1630 l0 -50 75 0 75 0 0 -225 0 -225 55 0 55 0 0 225 0 225 75
0 75 0 0 50 0 50 -205 0 -205 0 0 -50z"/>
</g>
</svg>
